<svg xmlns="http://www.w3.org/2000/svg" width="500" height="200"><path d="M11,-94L44,-89L359,-116Z" fill="#b3b3b1" stroke="#b3b3b1" stroke-width="1.51"/><path d="M44,-89L141,-73L359,-116Z" fill="#b6b6b4" stroke="#b6b6b4" stroke-width="1.51"/><path d="M546,-4L585,65L594,72Z" fill="#d8d8d6" stroke="#d8d8d6" stroke-width="1.51"/><path d="M546,-65L546,-4L594,72Z" fill="#d3d3d1" stroke="#d3d3d1" stroke-width="1.51"/><path d="M585,65L561,134L594,72Z" fill="#dcdcda" stroke="#dcdcda" stroke-width="1.51"/><path d="M446,305L371,320L599,305Z" fill="#e9e9e7" stroke="#e9e9e7" stroke-width="1.51"/><path d="M502,279L446,305L599,305Z" fill="#eaeae8" stroke="#eaeae8" stroke-width="1.51"/><path d="M561,134L506,225L603,214Z" fill="#e3e3e1" stroke="#e3e3e1" stroke-width="1.51"/><path d="M502,279L599,305L603,214Z" fill="#ebebe9" stroke="#ebebe9" stroke-width="1.51"/><path d="M506,225L502,279L603,214Z" fill="#e7e7e5" stroke="#e7e7e5" stroke-width="1.51"/><path d="M594,72L561,134L603,214Z" fill="#e1e1df" stroke="#e1e1df" stroke-width="1.51"/><path d="M493,171L506,225L561,134Z" fill="#e0e0de" stroke="#e0e0de" stroke-width="1.51"/><path d="M546,-4L513,23L585,65Z" fill="#d5d5d3" stroke="#d5d5d3" stroke-width="1.51"/><path d="M513,23L480,127L561,134Z" fill="#d9d9d7" stroke="#d9d9d7" stroke-width="1.51"/><path d="M513,23L561,134L585,65Z" fill="#d9d9d7" stroke="#d9d9d7" stroke-width="1.51"/><path d="M517,-15L546,-4L546,-65Z" fill="#cfcfcd" stroke="#cfcfcd" stroke-width="1.51"/><path d="M480,127L493,171L561,134Z" fill="#dddddb" stroke="#dddddb" stroke-width="1.51"/><path d="M449,64L480,127L513,23Z" fill="#d4d4d2" stroke="#d4d4d2" stroke-width="1.51"/><path d="M517,-15L513,23L546,-4Z" fill="#d1d1cf" stroke="#d1d1cf" stroke-width="1.51"/><path d="M498,-92L517,-15L546,-65Z" fill="#ccccca" stroke="#ccccca" stroke-width="1.51"/><path d="M449,247L502,279L506,225Z" fill="#e5e5e3" stroke="#e5e5e3" stroke-width="1.51"/><path d="M441,-15L513,23L517,-15Z" fill="#cececc" stroke="#cececc" stroke-width="1.51"/><path d="M498,-92L441,-15L517,-15Z" fill="#cbcbc9" stroke="#cbcbc9" stroke-width="1.51"/><path d="M441,-15L449,64L513,23Z" fill="#d0d0ce" stroke="#d0d0ce" stroke-width="1.51"/><path d="M440,-106L441,-15L498,-92Z" fill="#c7c7c5" stroke="#c7c7c5" stroke-width="1.51"/><path d="M493,171L449,247L506,225Z" fill="#e2e2e0" stroke="#e2e2e0" stroke-width="1.51"/><path d="M111,293L-50,316L250,325Z" fill="#d5d5d3" stroke="#d5d5d3" stroke-width="1.51"/><path d="M449,64L443,69L480,127Z" fill="#d5d5d3" stroke="#d5d5d3" stroke-width="1.51"/><path d="M449,247L446,305L502,279Z" fill="#e6e6e4" stroke="#e6e6e4" stroke-width="1.51"/><path d="M417,159L449,247L493,171Z" fill="#dededc" stroke="#dededc" stroke-width="1.51"/><path d="M480,127L417,159L493,171Z" fill="#dbdbd8" stroke="#dbdbd8" stroke-width="1.51"/><path d="M141,-73L224,-68L359,-116Z" fill="#b9b9b7" stroke="#b9b9b7" stroke-width="1.51"/><path d="M443,69L417,159L480,127Z" fill="#d6d6d4" stroke="#d6d6d4" stroke-width="1.51"/><path d="M224,-68L344,-106L359,-116Z" fill="#bcbcba" stroke="#bcbcba" stroke-width="1.51"/><path d="M373,94L375,140L417,159Z" fill="#d5d5d3" stroke="#d5d5d3" stroke-width="1.51"/><path d="M359,-116L366,-14L440,-106Z" fill="#c2c2c0" stroke="#c2c2c0" stroke-width="1.51"/><path d="M440,-106L366,-14L441,-15Z" fill="#c7c7c5" stroke="#c7c7c5" stroke-width="1.51"/><path d="M373,94L417,159L443,69Z" fill="#d4d4d2" stroke="#d4d4d2" stroke-width="1.51"/><path d="M417,159L377,201L449,247Z" fill="#dcdcda" stroke="#dcdcda" stroke-width="1.51"/><path d="M371,320L446,305L449,247Z" fill="#e5e5e3" stroke="#e5e5e3" stroke-width="1.51"/><path d="M377,201L371,320L449,247Z" fill="#e0e0de" stroke="#e0e0de" stroke-width="1.51"/><path d="M381,5L443,69L449,64Z" fill="#cfcfcd" stroke="#cfcfcd" stroke-width="1.51"/><path d="M441,-15L381,5L449,64Z" fill="#cdcdcb" stroke="#cdcdcb" stroke-width="1.51"/><path d="M381,5L373,94L443,69Z" fill="#cfcfcd" stroke="#cfcfcd" stroke-width="1.51"/><path d="M366,-14L381,5L441,-15Z" fill="#c9c9c7" stroke="#c9c9c7" stroke-width="1.51"/><path d="M359,-116L344,-106L366,-14Z" fill="#c0c0be" stroke="#c0c0be" stroke-width="1.51"/><path d="M333,208L371,320L377,201Z" fill="#dddddb" stroke="#dddddb" stroke-width="1.51"/><path d="M338,29L373,94L381,5Z" fill="#cbcbc9" stroke="#cbcbc9" stroke-width="1.51"/><path d="M375,140L377,201L417,159Z" fill="#d8d8d6" stroke="#d8d8d6" stroke-width="1.51"/><path d="M333,208L286,268L371,320Z" fill="#dddddb" stroke="#dddddb" stroke-width="1.51"/><path d="M338,29L311,75L373,94Z" fill="#ccccca" stroke="#ccccca" stroke-width="1.51"/><path d="M375,140L345,168L377,201Z" fill="#d7d7d5" stroke="#d7d7d5" stroke-width="1.51"/><path d="M366,-14L338,29L381,5Z" fill="#c8c8c6" stroke="#c8c8c6" stroke-width="1.51"/><path d="M344,-106L287,-8L366,-14Z" fill="#c2c2c0" stroke="#c2c2c0" stroke-width="1.51"/><path d="M373,94L311,75L375,140Z" fill="#d0d0ce" stroke="#d0d0ce" stroke-width="1.51"/><path d="M311,75L345,168L375,140Z" fill="#d2d2d0" stroke="#d2d2d0" stroke-width="1.51"/><path d="M345,168L333,208L377,201Z" fill="#d8d8d6" stroke="#d8d8d6" stroke-width="1.51"/><path d="M286,268L250,325L371,320Z" fill="#dfdfdd" stroke="#dfdfdd" stroke-width="1.51"/><path d="M287,-8L338,29L366,-14Z" fill="#c6c6c4" stroke="#c6c6c4" stroke-width="1.51"/><path d="M311,75L259,120L345,168Z" fill="#cfcfcd" stroke="#cfcfcd" stroke-width="1.51"/><path d="M224,-68L287,-8L344,-106Z" fill="#bebebc" stroke="#bebebc" stroke-width="1.51"/><path d="M237,143L333,208L345,168Z" fill="#d3d3d1" stroke="#d3d3d1" stroke-width="1.51"/><path d="M259,120L237,143L345,168Z" fill="#d0d0ce" stroke="#d0d0ce" stroke-width="1.51"/><path d="M281,0L311,75L338,29Z" fill="#c8c8c6" stroke="#c8c8c6" stroke-width="1.51"/><path d="M287,-8L281,0L338,29Z" fill="#c5c5c3" stroke="#c5c5c3" stroke-width="1.51"/><path d="M281,0L256,49L311,75Z" fill="#c7c7c5" stroke="#c7c7c5" stroke-width="1.51"/><path d="M230,253L286,268L333,208Z" fill="#d9d9d7" stroke="#d9d9d7" stroke-width="1.51"/><path d="M237,143L230,253L333,208Z" fill="#d4d4d2" stroke="#d4d4d2" stroke-width="1.51"/><path d="M256,49L259,120L311,75Z" fill="#cacac8" stroke="#cacac8" stroke-width="1.51"/><path d="M230,253L250,325L286,268Z" fill="#dbdbd9" stroke="#dbdbd9" stroke-width="1.51"/><path d="M208,-47L281,0L287,-8Z" fill="#c0c0be" stroke="#c0c0be" stroke-width="1.51"/><path d="M224,-68L208,-47L287,-8Z" fill="#bdbdbb" stroke="#bdbdbb" stroke-width="1.51"/><path d="M208,-47L256,49L281,0Z" fill="#c1c1bf" stroke="#c1c1bf" stroke-width="1.51"/><path d="M141,-73L160,-63L224,-68Z" fill="#b7b7b5" stroke="#b7b7b5" stroke-width="1.51"/><path d="M167,157L172,248L230,253Z" fill="#d1d1cf" stroke="#d1d1cf" stroke-width="1.51"/><path d="M167,157L230,253L237,143Z" fill="#cfcfcd" stroke="#cfcfcd" stroke-width="1.51"/><path d="M184,279L111,293L250,325Z" fill="#d8d8d6" stroke="#d8d8d6" stroke-width="1.51"/><path d="M230,253L184,279L250,325Z" fill="#d9d9d7" stroke="#d9d9d7" stroke-width="1.51"/><path d="M208,-47L170,54L256,49Z" fill="#c1c1bf" stroke="#c1c1bf" stroke-width="1.51"/><path d="M170,54L195,124L256,49Z" fill="#c5c5c3" stroke="#c5c5c3" stroke-width="1.51"/><path d="M256,49L195,124L259,120Z" fill="#c9c9c7" stroke="#c9c9c7" stroke-width="1.51"/><path d="M195,124L237,143L259,120Z" fill="#cbcbc9" stroke="#cbcbc9" stroke-width="1.51"/><path d="M138,9L170,54L208,-47Z" fill="#bebebc" stroke="#bebebc" stroke-width="1.51"/><path d="M195,124L167,157L237,143Z" fill="#cbcbc9" stroke="#cbcbc9" stroke-width="1.51"/><path d="M172,248L184,279L230,253Z" fill="#d5d5d3" stroke="#d5d5d3" stroke-width="1.51"/><path d="M160,-63L208,-47L224,-68Z" fill="#b9b9b7" stroke="#b9b9b7" stroke-width="1.51"/><path d="M160,-63L138,9L208,-47Z" fill="#babab8" stroke="#babab8" stroke-width="1.51"/><path d="M54,279L-50,316L111,293Z" fill="#d0d0ce" stroke="#d0d0ce" stroke-width="1.51"/><path d="M170,54L104,135L195,124Z" fill="#c5c5c3" stroke="#c5c5c3" stroke-width="1.51"/><path d="M104,135L167,157L195,124Z" fill="#c8c8c6" stroke="#c8c8c6" stroke-width="1.51"/><path d="M114,-45L138,9L160,-63Z" fill="#b8b8b6" stroke="#b8b8b6" stroke-width="1.51"/><path d="M167,157L100,243L172,248Z" fill="#cfcfcd" stroke="#cfcfcd" stroke-width="1.51"/><path d="M172,248L111,293L184,279Z" fill="#d4d4d2" stroke="#d4d4d2" stroke-width="1.51"/><path d="M104,135L100,243L167,157Z" fill="#cacac8" stroke="#cacac8" stroke-width="1.51"/><path d="M94,128L104,135L170,54Z" fill="#c3c3c1" stroke="#c3c3c1" stroke-width="1.51"/><path d="M100,243L111,293L172,248Z" fill="#d2d2d0" stroke="#d2d2d0" stroke-width="1.51"/><path d="M48,68L94,128L170,54Z" fill="#c0c0be" stroke="#c0c0be" stroke-width="1.51"/><path d="M138,9L56,34L170,54Z" fill="#bdbdbb" stroke="#bdbdbb" stroke-width="1.51"/><path d="M56,34L48,68L170,54Z" fill="#bdbdbb" stroke="#bdbdbb" stroke-width="1.51"/><path d="M141,-73L114,-45L160,-63Z" fill="#b6b6b4" stroke="#b6b6b4" stroke-width="1.51"/><path d="M54,222L100,243L104,135Z" fill="#cacac8" stroke="#cacac8" stroke-width="1.51"/><path d="M50,157L54,222L104,135Z" fill="#c6c6c4" stroke="#c6c6c4" stroke-width="1.51"/><path d="M44,-89L114,-45L141,-73Z" fill="#b3b3b1" stroke="#b3b3b1" stroke-width="1.51"/><path d="M114,-45L56,34L138,9Z" fill="#b9b9b7" stroke="#b9b9b7" stroke-width="1.51"/><path d="M19,276L-50,316L54,279Z" fill="#cdcdcb" stroke="#cdcdcb" stroke-width="1.51"/><path d="M100,243L54,279L111,293Z" fill="#d0d0ce" stroke="#d0d0ce" stroke-width="1.51"/><path d="M26,-42L56,34L114,-45Z" fill="#b6b6b4" stroke="#b6b6b4" stroke-width="1.51"/><path d="M44,-89L26,-42L114,-45Z" fill="#b2b2b0" stroke="#b2b2b0" stroke-width="1.51"/><path d="M94,128L50,157L104,135Z" fill="#c4c4c2" stroke="#c4c4c2" stroke-width="1.51"/><path d="M54,222L54,279L100,243Z" fill="#cdcdcb" stroke="#cdcdcb" stroke-width="1.51"/><path d="M14,128L50,157L94,128Z" fill="#c2c2c0" stroke="#c2c2c0" stroke-width="1.51"/><path d="M48,68L14,128L94,128Z" fill="#c0c0be" stroke="#c0c0be" stroke-width="1.51"/><path d="M-4,64L14,128L48,68Z" fill="#bcbcba" stroke="#bcbcba" stroke-width="1.51"/><path d="M-15,137L5,241L50,157Z" fill="#c4c4c2" stroke="#c4c4c2" stroke-width="1.51"/><path d="M50,157L5,241L54,222Z" fill="#c8c8c6" stroke="#c8c8c6" stroke-width="1.51"/><path d="M19,276L54,279L54,222Z" fill="#cdcdcb" stroke="#cdcdcb" stroke-width="1.51"/><path d="M5,241L19,276L54,222Z" fill="#cacac8" stroke="#cacac8" stroke-width="1.51"/><path d="M-4,64L48,68L56,34Z" fill="#babab8" stroke="#babab8" stroke-width="1.51"/><path d="M26,-42L-4,64L56,34Z" fill="#b6b6b4" stroke="#b6b6b4" stroke-width="1.51"/><path d="M-58,-4L-4,64L26,-42Z" fill="#b3b3b1" stroke="#b3b3b1" stroke-width="1.51"/><path d="M11,-94L26,-42L44,-89Z" fill="#afafad" stroke="#afafad" stroke-width="1.51"/><path d="M14,128L-15,137L50,157Z" fill="#c0c0be" stroke="#c0c0be" stroke-width="1.51"/><path d="M-29,-48L-58,-4L26,-42Z" fill="#afafad" stroke="#afafad" stroke-width="1.51"/><path d="M-15,137L-64,211L5,241Z" fill="#c3c3c1" stroke="#c3c3c1" stroke-width="1.51"/><path d="M-4,64L-15,137L14,128Z" fill="#bdbdbb" stroke="#bdbdbb" stroke-width="1.51"/><path d="M11,-94L-29,-48L26,-42Z" fill="#aeaeac" stroke="#aeaeac" stroke-width="1.51"/><path d="M5,241L-50,316L19,276Z" fill="#ccccca" stroke="#ccccca" stroke-width="1.51"/><path d="M-63,102L-15,137L-4,64Z" fill="#bbbbb9" stroke="#bbbbb9" stroke-width="1.51"/><path d="M-101,-69L-29,-48L11,-94Z" fill="#ababa9" stroke="#ababa9" stroke-width="1.51"/><path d="M-64,211L-50,316L5,241Z" fill="#c8c8c6" stroke="#c8c8c6" stroke-width="1.51"/><path d="M-84,155L-64,211L-15,137Z" fill="#bfbfbd" stroke="#bfbfbd" stroke-width="1.51"/><path d="M-58,-4L-86,22L-4,64Z" fill="#b3b3b1" stroke="#b3b3b1" stroke-width="1.51"/><path d="M-86,22L-63,102L-4,64Z" fill="#b6b6b4" stroke="#b6b6b4" stroke-width="1.51"/><path d="M-63,102L-84,155L-15,137Z" fill="#bcbcba" stroke="#bcbcba" stroke-width="1.51"/><path d="M-101,-69L-58,-4L-29,-48Z" fill="#adadab" stroke="#adadab" stroke-width="1.51"/><path d="M-64,211L-84,155L-50,316Z" fill="#c4c4c2" stroke="#c4c4c2" stroke-width="1.51"/><path d="M-101,-69L-86,22L-58,-4Z" fill="#aeaeac" stroke="#aeaeac" stroke-width="1.51"/><path d="M-86,22L-84,155L-63,102Z" fill="#b7b7b5" stroke="#b7b7b5" stroke-width="1.51"/><path d="M-86,22L-101,-69L-84,155Z" fill="#b2b2b0" stroke="#b2b2b0" stroke-width="1.51"/></svg>