<?xml version="1.0" standalone="no"?>
<!DOCTYPE svg PUBLIC "-//W3C//DTD SVG 20010904//EN"
 "http://www.w3.org/TR/2001/REC-SVG-20010904/DTD/svg10.dtd">
<svg version="1.0" xmlns="http://www.w3.org/2000/svg"
 width="512.000000pt" height="512.000000pt" viewBox="0 0 512.000000 512.000000"
 preserveAspectRatio="xMidYMid meet">
<metadata>
Created by potrace 1.11, written by Peter Selinger 2001-2013
</metadata>
<g transform="translate(0.000000,512.000000) scale(0.100000,-0.100000)"
fill="#000000" stroke="none">
<path d="M0 3724 c0 -1112 3 -1395 13 -1391 6 3 82 22 167 42 137 32 225 64
310 110 14 8 46 26 73 40 26 14 77 48 115 75 89 65 181 100 406 155 l187 46
43 -25 c35 -20 57 -25 127 -27 46 -1 97 3 112 10 37 14 109 14 198 -1 64 -11
72 -11 83 4 7 9 44 35 82 56 62 35 71 45 87 88 29 76 36 217 21 383 -7 80 -20
168 -28 194 -23 71 -71 157 -122 215 -55 63 -109 176 -129 272 -8 40 -26 115
-39 168 -14 54 -28 122 -31 153 -7 52 -4 61 34 133 23 43 41 86 41 96 0 10
-15 30 -32 44 l-33 26 26 0 c20 0 31 8 43 34 9 19 16 40 16 48 0 19 52 68 73
68 9 0 34 16 55 35 36 32 40 33 60 19 34 -23 74 3 105 68 14 29 39 72 56 96
28 37 36 42 71 42 22 0 59 -5 83 -12 37 -10 51 -8 107 12 38 13 107 26 165 30
55 5 134 12 177 16 l76 7 16 -32 c9 -17 27 -33 41 -37 37 -9 65 -50 65 -96 0
-21 9 -56 20 -78 26 -51 26 -131 0 -189 -27 -59 -26 -72 16 -152 24 -46 47
-75 70 -88 38 -22 58 -63 50 -97 -4 -13 -9 -60 -12 -106 -5 -72 -2 -92 20
-157 14 -41 26 -85 26 -98 0 -36 -59 -233 -87 -288 -16 -33 -26 -74 -30 -123
l-6 -73 -61 -30 c-33 -16 -76 -44 -94 -62 l-34 -32 6 -101 c7 -115 31 -273 43
-285 4 -4 47 -14 94 -22 47 -8 126 -31 175 -50 134 -53 129 -52 180 -18 61 40
100 48 125 25 10 -9 19 -24 19 -32 0 -8 6 -12 13 -9 7 3 51 17 98 32 74 24 94
26 171 21 150 -10 308 -51 448 -116 69 -32 152 -68 184 -80 32 -13 93 -47 135
-76 111 -79 166 -102 314 -134 72 -15 146 -33 162 -38 17 -6 50 -15 75 -21 25
-5 53 -13 63 -16 16 -7 17 62 17 1359 l0 1366 -2560 0 -2560 0 0 -1396z"/>
<path d="M2658 1921 c-9 -14 -28 -23 -60 -27 -26 -4 -53 -13 -59 -20 -14 -17
-31 -18 -47 -2 -7 7 -50 18 -95 25 -70 10 -84 9 -99 -4 -9 -8 -32 -22 -50 -31
-25 -13 -44 -37 -75 -97 -23 -44 -47 -91 -53 -105 -7 -18 -24 -30 -55 -39 -25
-7 -45 -15 -45 -18 0 -3 11 -14 24 -24 14 -11 26 -32 28 -47 2 -19 12 -31 35
-42 23 -11 33 -23 35 -44 4 -37 61 -74 84 -55 22 18 47 3 38 -23 -5 -17 0 -27
22 -46 19 -15 25 -26 17 -29 -26 -10 -12 -21 25 -21 51 1 181 -11 212 -19 35
-9 51 -5 80 22 41 38 100 49 162 29 29 -10 57 -23 61 -31 4 -7 19 -13 32 -13
25 0 41 29 33 61 -6 26 41 87 72 94 21 5 30 14 35 35 4 16 4 34 0 40 -9 15
-41 12 -76 -5 -22 -12 -34 -13 -49 -5 -34 18 -41 46 -38 147 3 97 3 98 -29
138 -18 22 -47 69 -66 105 -27 52 -39 66 -60 68 -18 2 -30 -3 -39 -17z"/>
<path d="M4004 1743 c-10 -15 -41 -59 -69 -98 -67 -93 -102 -175 -116 -271 -6
-43 -21 -104 -34 -135 -14 -31 -29 -87 -35 -124 -6 -38 -12 -71 -14 -74 -2 -3
-7 -39 -10 -80 -4 -41 -14 -106 -23 -145 -19 -83 -20 -331 -2 -442 23 -148 23
-186 -5 -276 -14 -47 -26 -89 -26 -92 0 -3 326 -6 725 -6 l725 0 0 795 0 794
-32 5 c-18 3 -112 12 -208 21 -96 9 -218 25 -270 35 -52 10 -117 21 -145 25
-27 4 -64 15 -81 25 -17 10 -42 16 -55 13 -14 -2 -69 8 -124 22 -55 15 -119
29 -142 32 -37 4 -43 2 -59 -24z"/>
<path d="M885 1688 c-106 -43 -363 -119 -484 -144 -99 -20 -293 -41 -388 -44
-10 0 -13 -157 -13 -750 l0 -750 665 0 665 0 -5 38 c-13 93 -27 263 -35 447
-6 120 -20 259 -35 350 -14 82 -29 204 -33 270 -9 119 -9 121 -81 290 -40 94
-87 188 -103 210 -16 22 -38 55 -49 73 -22 37 -35 38 -104 10z"/>
</g>
</svg>
